<?xml version="1.0" encoding="utf-8"?>
<!-- Generator: Adobe Illustrator 24.0.0, SVG Export Plug-In . SVG Version: 6.00 Build 0)  -->
<svg version="1.1" id="Ebene_1" xmlns="http://www.w3.org/2000/svg" xmlns:xlink="http://www.w3.org/1999/xlink" x="0px" y="0px"
	 viewBox="0 0 24 24" style="enable-background:new 0 0 24 24;" xml:space="preserve">
<style type="text/css">
	.st0{fill:#FFFFFF;}
</style>
<circle class="st0" cx="12" cy="12" r="12"/>
<g>
	<g>
		<g>
			<path d="M6.4,22.8l-0.9-0.6c2.7-3.6,7.7-4.3,11.3-1.6c0.6,0.5,1.1,1,1.6,1.6l-0.9,0.6c-2.3-3.1-6.7-3.7-9.8-1.4
				C7.3,21.8,6.8,22.3,6.4,22.8 M5.8,16.3h12.4v1.1H5.8V16.3z M8.3,14.6V5.4L12,1.2l3.7,4.2v9.2L8.3,14.6z M9.5,13.6h5.1V6.5H9.5
				V13.6z M9.7,5.5h4.6L12,2.8L9.7,5.5z"/>
		</g>
	</g>
</g>
</svg>
