<?xml version="1.0" encoding="utf-8"?>
<!-- Generator: Adobe Illustrator 24.0.0, SVG Export Plug-In . SVG Version: 6.00 Build 0)  -->
<svg version="1.1" id="Ebene_1" xmlns="http://www.w3.org/2000/svg" xmlns:xlink="http://www.w3.org/1999/xlink" x="0px" y="0px"
	 viewBox="0 0 200 40" style="enable-background:new 0 0 200 40;" xml:space="preserve">
<g>
	<path d="M46.4,28.1h-8.3V11.6h8.2c3.1,0,5,1.7,5,4.4c0,1.3-0.6,2.6-1.6,3.4c1.5,0.8,2.5,2.4,2.4,4.1C52.2,26.3,50.1,28.1,46.4,28.1
		 M45.2,14.8h-2.8v3.3h2.8c1.2,0,1.9-0.6,1.9-1.7S46.5,14.8,45.2,14.8 M45.8,21.4h-3.3v3.5h3.2c1.5,0,2.2-0.6,2.2-1.8
		C47.9,21.9,47.2,21.4,45.8,21.4"/>
	<path d="M141,27.8h-4.8l-2.1-3.7c-0.4-0.9-1.1-1.5-2-1.8h-1.8v5.5h-4.4V11.2h8.3c3.3,0,5.7,2.1,5.7,5.3c0,2.1-1.3,4-3.2,4.7
		c0.6,0.5,1.1,1.1,1.5,1.7L141,27.8z M133.6,14.8h-3.2v4h3.1c1.1,0.1,2-0.6,2.2-1.7c0-0.1,0-0.2,0-0.3c0.1-1-0.7-1.9-1.7-2
		C133.9,14.8,133.6,14.8,133.6,14.8"/>
	<path d="M166.5,16.1c-0.7-1.1-2-1.8-3.3-1.8c-2.5,0-3.9,1.6-3.9,4.9c0,3.5,1.5,5,4,5c0.9,0,1.9-0.2,2.7-0.6v-2.2h-2.9V18h7.1v7.5
		c-2,1.5-4.5,2.3-7,2.3c-5.1,0-8.2-2.9-8.2-8.5s3.1-8.6,8.1-8.6c2.9-0.2,5.7,1.3,7.3,3.8L166.5,16.1z"/>
	<path d="M103.1,20.7c0,4.8-2.9,7.3-7.3,7.3s-7.3-2.5-7.3-7.3v-9.5h4.4v9.7c0,2.1,1,3.3,3,3.3s3-1.2,3-3.3v-9.7h4.4L103.1,20.7z"/>
</g>
<g>
	<g>
		<path d="M10.6,30.7l-0.9-0.6c2.7-3.6,7.7-4.3,11.3-1.6c0.6,0.5,1.1,1,1.6,1.6l-0.9,0.6c-2.3-3.1-6.7-3.7-9.8-1.4
			C11.4,29.8,10.9,30.2,10.6,30.7 M9.9,24.3h12.4v1.1H9.9V24.3z M12.5,22.6v-9.3l3.6-4.1l3.7,4.2v9.2H12.5z M13.6,21.6h5.1v-7.1
			h-5.1V21.6z M13.8,13.5h4.6l-2.3-2.7L13.8,13.5z"/>
	</g>
</g>
</svg>
